<?xml version="1.0" encoding="UTF-8"?>
<svg version="1.1" xmlns="http://www.w3.org/2000/svg" width="128" height="128">
<path d="M0 0 C42.24 0 84.48 0 128 0 C128 42.24 128 84.48 128 128 C85.76 128 43.52 128 0 128 C0 85.76 0 43.52 0 0 Z " fill="#A95E4C" transform="translate(0,0)"/>
<path d="M0 0 C29.04 0 58.08 0 88 0 C86.68 0.66 85.36 1.32 84 2 C79.00291196 4.83135207 74.97239043 7.80061583 71 12 C70.01 12.66 69.02 13.32 68 14 C67.01 13.505 67.01 13.505 66 13 C63.96202681 24.20540614 63.7580429 35.02795493 63.875 46.375 C63.88506063 48.09374472 63.89418097 49.81249522 63.90234375 51.53125 C63.9223655 55.68776466 63.96155302 59.84345453 64 64 C71.92 64 79.84 64 88 64 C88 64.33 88 64.66 88 65 C84.04 65 80.08 65 76 65 C76.66 66.32 77.32 67.64 78 69 C77.32904297 69.51046875 77.32904297 69.51046875 76.64453125 70.03125 C69.80682956 75.51307481 65.95619894 81.46385916 64 90 C63.67 90 63.34 90 63 90 C63 81.42 63 72.84 63 64 C54.09 64 45.18 64 36 64 C36 63.34 36 62.68 36 62 C40.62 61.67 45.24 61.34 50 61 C48.06392433 58.08237899 46.12620003 55.16587641 44.1875 52.25 C43.64029297 51.425 43.09308594 50.6 42.52929688 49.75 C41.73168945 48.55117187 41.73168945 48.55117187 40.91796875 47.328125 C40.43094482 46.5949707 39.9439209 45.86181641 39.44213867 45.10644531 C38.4485337 43.65514623 37.40292661 42.2385603 36.31762695 40.85449219 C35 39 35 39 35 37 C42.92 37 50.84 37 59 37 C59 33.7 59 30.4 59 27 C54.76376458 27.09346313 50.52809149 27.19953913 46.29248047 27.31738281 C44.8511626 27.35569674 43.40974832 27.39054543 41.96826172 27.421875 C39.89776114 27.46747446 37.82792567 27.52547444 35.7578125 27.5859375 C34.5114502 27.6173584 33.26508789 27.6487793 31.98095703 27.68115234 C28.88458224 27.69682309 28.88458224 27.69682309 27 30 C27.28746094 31.1034375 27.57492188 32.206875 27.87109375 33.34375 C28.90943797 40.10904427 23.79255061 45.29448652 20.0625 50.5 C19.28509799 51.61839622 18.50968567 52.73817827 17.73632812 53.859375 C15.84374697 56.58657269 13.92442229 59.29517663 12 62 C16.62 62 21.24 62 26 62 C26 62.66 26 63.32 26 64 C17.42 64 8.84 64 0 64 C0 42.88 0 21.76 0 0 Z " fill="#DCA046" transform="translate(0,0)"/>
<path d="M0 0 C8.38229136 4.94190743 14.17132152 12.08653348 17.24609375 21.32421875 C18.63749874 32.78993105 16.57574605 41.51969411 9.3828125 50.703125 C3.76836731 56.81263149 -1.72070941 60.12462893 -10.046875 60.69921875 C-11.63626672 60.75554996 -13.22624881 60.7970421 -14.81640625 60.82421875 C-15.57228027 60.84291016 -16.3281543 60.86160156 -17.10693359 60.88085938 C-24.75447586 60.79435248 -30.54402507 57.87378212 -36.12890625 52.69921875 C-36.77601562 52.10882813 -37.423125 51.5184375 -38.08984375 50.91015625 C-39.32693802 49.73114152 -40.54550276 48.53262224 -41.75390625 47.32421875 C-43.23890625 47.81921875 -43.23890625 47.81921875 -44.75390625 48.32421875 C-44.84478516 47.18533203 -44.84478516 47.18533203 -44.9375 46.0234375 C-45.02128906 45.02957031 -45.10507813 44.03570312 -45.19140625 43.01171875 C-45.31322266 41.53251953 -45.31322266 41.53251953 -45.4375 40.0234375 C-45.67203184 37.23046276 -45.67203184 37.23046276 -46.75390625 34.32421875 C-47.47477959 25.94197064 -45.98808084 17.58878075 -44.75390625 9.32421875 C-43.43390625 9.65421875 -42.11390625 9.98421875 -40.75390625 10.32421875 C-40.27953125 9.62296875 -39.80515625 8.92171875 -39.31640625 8.19921875 C-29.33375623 -3.00082761 -13.73987114 -6.42998896 0 0 Z " fill="#BE7E48" transform="translate(109.75390625,2.67578125)"/>
<path d="M0 0 C8.58 0 17.16 0 26 0 C26.06058594 2.35898438 26.12117188 4.71796875 26.18359375 7.1484375 C26.24537144 9.42874395 26.30876397 11.70900016 26.37231445 13.98925781 C26.41567241 15.57612657 26.45734687 17.16304224 26.49731445 18.75 C26.55499632 21.02878979 26.61869638 23.30734322 26.68359375 25.5859375 C26.70030624 26.29744965 26.71701874 27.00896179 26.73423767 27.74203491 C26.79721937 31.49660817 26.79721937 31.49660817 28 35 C30.91652174 35.16681109 30.91652174 35.16681109 34 35 C36.23016426 33.11788154 36.23016426 33.11788154 36.67578125 30.19140625 C38.50429058 25.78464482 41.2064602 24.34920237 45.1875 21.9375 C46.49422978 21.11445527 47.80022254 20.29023921 49.10546875 19.46484375 C49.74919434 19.06507324 50.39291992 18.66530273 51.05615234 18.25341797 C53.04941621 16.9681358 54.95362139 15.59729992 56.86328125 14.19140625 C60 12 60 12 62 12 C62.495 23.88 62.495 23.88 63 36 C64.65 36 66.3 36 68 36 C66.02 36.99 66.02 36.99 64 38 C63.67 46.58 63.34 55.16 63 64 C42.21 64 21.42 64 0 64 C0 42.88 0 21.76 0 0 Z " fill="#BD7B45" transform="translate(0,64)"/>
<path d="M0 0 C3.661446 3.46907581 6.51835758 6.95155905 9.3125 11.1875 C10.00988281 12.23292969 10.70726563 13.27835938 11.42578125 14.35546875 C13 17 13 17 13 19 C17.74945958 18.25624618 17.74945958 18.25624618 21.45068359 15.42871094 C22.77990043 13.44984635 24.00252962 11.44345072 25.1875 9.375 C26.69605553 6.78755578 28.23198856 4.43434741 30 2 C34 2 34 2 36.4375 3.875 C42.43704664 10.54530341 44.93970115 17.74693227 44.5390625 26.6875 C43.23993988 34.67051437 39.72579506 41.03547691 33.4375 46.125 C25.71025975 51.66216681 18.18589101 51.61837703 9 51 C1.74064327 49.61606717 -3.94678059 43.52703928 -8.4375 38 C-10.20071747 34.61462246 -10.69717327 31.78533415 -11 28 C-12.65 28 -14.3 28 -16 28 C-16 25.03 -16 22.06 -16 19 C-14.35 19 -12.7 19 -11 19 C-10.9175 18.154375 -10.835 17.30875 -10.75 16.4375 C-9.17733048 9.22943138 -5.23991982 4.88265256 0 0 Z " fill="#DEBC8F" transform="translate(79,72)"/>
<path d="M0 0 C7.39118887 4.76321061 10.11904706 10.72037155 12 19 C10.65252686 19.029729 10.65252686 19.029729 9.27783203 19.06005859 C5.94909922 19.13809261 2.62082744 19.22478114 -0.70751953 19.31738281 C-2.1488374 19.35569674 -3.59025168 19.39054543 -5.03173828 19.421875 C-7.10223886 19.46747446 -9.17207433 19.52547444 -11.2421875 19.5859375 C-12.4885498 19.6173584 -13.73491211 19.6487793 -15.01904297 19.68115234 C-18.11541776 19.69682309 -18.11541776 19.69682309 -20 22 C-19.76796875 23.1859375 -19.5359375 24.371875 -19.296875 25.59375 C-18.58789358 30.23359289 -20.05460532 32.6361555 -22.67578125 36.390625 C-23.19527344 37.08671875 -23.71476562 37.7828125 -24.25 38.5 C-24.75402344 39.22703125 -25.25804688 39.9540625 -25.77734375 40.703125 C-28.55303203 44.57888921 -28.55303203 44.57888921 -30 46 C-33 46 -33 46 -34.71875 44.49609375 C-41.84197781 36.26376687 -43.66599431 30.69384303 -43.40625 19.73046875 C-42.59262083 12.25916239 -39.561828 7.15027095 -34.125 2.0625 C-23.73845318 -6.10799323 -11.49276547 -6.231537 0 0 Z " fill="#DFBE91" transform="translate(47,8)"/>
<path d="M0 0 C0.66163651 0.00424484 1.32327301 0.00848969 2.00495911 0.01286316 C4.11440035 0.02963182 6.22287971 0.06727776 8.33203125 0.10546875 C9.76365806 0.12051807 11.19529987 0.13420605 12.62695312 0.14648438 C16.13312413 0.17952845 19.63873379 0.23129708 23.14453125 0.29296875 C23.14453125 3.59296875 23.14453125 6.89296875 23.14453125 10.29296875 C15.22453125 10.29296875 7.30453125 10.29296875 -0.85546875 10.29296875 C0.29953125 12.01386719 1.45453125 13.73476563 2.64453125 15.5078125 C3.75667595 17.16907865 4.86880478 18.83035548 5.98046875 20.49194336 C6.75568292 21.64972442 7.53172321 22.80695276 8.30859375 23.96362305 C9.42272609 25.62274232 10.53367992 27.28399466 11.64453125 28.9453125 C12.31484375 29.94554443 12.98515625 30.94577637 13.67578125 31.97631836 C15.14453125 34.29296875 15.14453125 34.29296875 15.14453125 35.29296875 C10.19453125 35.29296875 5.24453125 35.29296875 0.14453125 35.29296875 C0.15500488 36.37304199 0.16547852 37.45311523 0.17626953 38.56591797 C0.21241319 42.56523334 0.23541109 46.56453421 0.25439453 50.56396484 C0.26446501 52.2964114 0.27812214 54.02884091 0.29541016 55.76123047 C0.31961287 58.24841514 0.33100364 60.7353755 0.33984375 63.22265625 C0.35016632 63.99978973 0.36048889 64.77692322 0.37112427 65.5776062 C0.37152396 67.48422368 0.26685265 69.39027911 0.14453125 71.29296875 C-1.85546875 73.29296875 -1.85546875 73.29296875 -4.85546875 73.60546875 C-5.84546875 73.50234375 -6.83546875 73.39921875 -7.85546875 73.29296875 C-10.34883086 69.55292558 -10.11028103 66.66735266 -10.05078125 62.34375 C-10.04795135 61.57113327 -10.04512146 60.79851654 -10.04220581 60.00248718 C-10.03101753 57.53665632 -10.00591578 55.07118969 -9.98046875 52.60546875 C-9.97043718 50.93294796 -9.96131164 49.26042147 -9.953125 47.58789062 C-9.93108267 43.48944316 -9.89656238 39.39126769 -9.85546875 35.29296875 C-14.47546875 35.29296875 -19.09546875 35.29296875 -23.85546875 35.29296875 C-22.2972728 31.39747887 -21.19682058 29.14240718 -18.78125 25.9296875 C-18.19666016 25.12466797 -17.61207031 24.31964844 -17.00976562 23.49023438 C-15.78335041 21.81903231 -14.54371973 20.15744741 -13.29101562 18.50585938 C-9.98886286 14.16290398 -9.98886286 14.16290398 -8.79052734 9.01025391 C-9.11099371 7.09838567 -9.48007703 5.1948152 -9.85546875 3.29296875 C-7.50314541 -0.61229048 -4.19865597 -0.05314754 0 0 Z " fill="#596789" transform="translate(35.85546875,26.70703125)"/>
<path d="M0 0 C8.38229136 4.94190743 14.17132152 12.08653348 17.24609375 21.32421875 C18.63749874 32.78993105 16.57574605 41.51969411 9.3828125 50.703125 C3.76836731 56.81263149 -1.72070941 60.12462893 -10.046875 60.69921875 C-11.63626672 60.75554996 -13.22624881 60.7970421 -14.81640625 60.82421875 C-15.57228027 60.84291016 -16.3281543 60.86160156 -17.10693359 60.88085938 C-24.75447586 60.79435248 -30.54402507 57.87378212 -36.12890625 52.69921875 C-36.77601562 52.10882813 -37.423125 51.5184375 -38.08984375 50.91015625 C-39.32693802 49.73114152 -40.54550276 48.53262224 -41.75390625 47.32421875 C-43.23890625 47.81921875 -43.23890625 47.81921875 -44.75390625 48.32421875 C-44.84478516 47.18533203 -44.84478516 47.18533203 -44.9375 46.0234375 C-45.02128906 45.02957031 -45.10507813 44.03570312 -45.19140625 43.01171875 C-45.31322266 41.53251953 -45.31322266 41.53251953 -45.4375 40.0234375 C-45.67203184 37.23046276 -45.67203184 37.23046276 -46.75390625 34.32421875 C-47.47477959 25.94197064 -45.98808084 17.58878075 -44.75390625 9.32421875 C-43.43390625 9.65421875 -42.11390625 9.98421875 -40.75390625 10.32421875 C-40.27953125 9.62296875 -39.80515625 8.92171875 -39.31640625 8.19921875 C-29.33375623 -3.00082761 -13.73987114 -6.42998896 0 0 Z M-37.75390625 12.32421875 C-37.75390625 12.98421875 -37.75390625 13.64421875 -37.75390625 14.32421875 C-35.34572561 16.05111828 -32.93822928 17.67283137 -30.44140625 19.26171875 C-29.06821014 20.14256443 -27.69704189 21.02658111 -26.328125 21.9140625 C-25.71541748 22.30456787 -25.10270996 22.69507324 -24.47143555 23.09741211 C-22.70073677 24.36219695 -21.24709536 25.745933 -19.75390625 27.32421875 C-20.32792653 30.4312174 -20.97531574 32.65431126 -23.41894531 34.75683594 C-25.53302152 36.15300074 -27.67949954 37.44187225 -29.87890625 38.69921875 C-30.63300781 39.14910156 -31.38710937 39.59898438 -32.1640625 40.0625 C-34.01805334 41.16550721 -35.88479541 42.24703186 -37.75390625 43.32421875 C-36.21314046 46.58845986 -34.68205669 48.57014552 -31.94140625 50.94921875 C-31.27496094 51.53960937 -30.60851562 52.13 -29.921875 52.73828125 C-23.26764847 57.60605778 -15.61498698 56.8516395 -7.75390625 56.32421875 C-1.67922285 55.19997719 3.28659101 51.99440147 7.24609375 47.32421875 C12.64588989 39.38544562 14.82936134 31.87180207 13.24609375 22.32421875 C10.53966448 13.82508121 5.06499948 7.08331141 -2.81640625 2.88671875 C-16.00204855 -2.28853335 -28.891903 1.82974122 -37.75390625 12.32421875 Z " fill="#505168" transform="translate(109.75390625,2.67578125)"/>
<path d="M0 0 C8.58 0 17.16 0 26 0 C26 1.32 26 2.64 26 4 C25.34773438 4.30292969 24.69546875 4.60585937 24.0234375 4.91796875 C16.19863908 8.66879395 10.02414368 12.25497714 5.91796875 20.21484375 C3.22047295 28.39916081 3.94297314 38.0697062 7.60546875 45.84765625 C10.87821201 50.89886504 16.05506514 55.46010466 21.7578125 57.5625 C29.62096383 59.09677343 38.42550428 59.44882019 45.421875 55.14453125 C45.94265625 54.76683594 46.4634375 54.38914063 47 54 C47.94875 53.319375 48.8975 52.63875 49.875 51.9375 C52.17820056 49.99390928 52.17820056 49.99390928 54 47 C56.9719385 48.12451727 59.33440687 49.22293791 62 51 C61.98839844 50.00097656 61.97679687 49.00195312 61.96484375 47.97265625 C61.95582031 46.68230469 61.94679687 45.39195313 61.9375 44.0625 C61.92589844 42.77472656 61.91429687 41.48695312 61.90234375 40.16015625 C62 37 62 37 63 36 C64.66617115 35.95936168 66.33388095 35.957279 68 36 C66.02 36.99 66.02 36.99 64 38 C63.67 46.58 63.34 55.16 63 64 C42.21 64 21.42 64 0 64 C0 42.88 0 21.76 0 0 Z " fill="#9D452E" transform="translate(0,64)"/>
<path d="M0 0 C8.58 0 17.16 0 26 0 C26 42.24 26 84.48 26 128 C4.55 128 -16.9 128 -39 128 C-39 119.42 -39 110.84 -39 102 C-37 104 -37 104 -35.75 107.125 C-32.31058731 115.31488864 -26.84869162 120.87586931 -19 125 C-12.06458985 127.50104393 -1.95905112 127.11473283 5.09375 125.12890625 C13.38648676 121.2256891 18.82482599 115.55488246 22.2734375 107.11328125 C25.16249442 98.71016409 24.82819213 88.92319484 20.96484375 80.83203125 C18.14839738 76.15002876 14.66864366 72.03424733 11 68 C11.99 66.515 11.99 66.515 13 65 C8.71 65 4.42 65 0 65 C0 64.67 0 64.34 0 64 C8.25 64 16.5 64 25 64 C24.97178227 58.48471599 24.92837634 52.9736638 24.84741211 47.45947266 C24.82435896 45.58781503 24.80986646 43.71603002 24.80444336 41.84423828 C24.98412186 27.13331499 24.98412186 27.13331499 19 14 C18.52328857 13.32364502 18.04657715 12.64729004 17.55541992 11.95043945 C13.96793684 7.10562641 9.34176208 4.59318268 4 2 C2.68 1.34 1.36 0.68 0 0 Z " fill="#D0A372" transform="translate(102,0)"/>
<path d="M0 0 C20.79 0 41.58 0 63 0 C63 8.58 63 17.16 63 26 C62.67 26 62.34 26 62 26 C61.88785156 25.39414062 61.77570312 24.78828125 61.66015625 24.1640625 C59.65164718 15.63118082 54.9952428 9.62950226 47.9140625 4.484375 C43.22188888 1.85082301 39.31568441 1.62030826 34 2 C34.66 2.66 35.32 3.32 36 4 C35.2265625 4.02578125 34.453125 4.0515625 33.65625 4.078125 C24.83199525 4.55865372 18.06409767 6.34820432 11.38671875 12.421875 C5.36568026 19.27398641 4.19095599 26.428565 4.515625 35.375 C5.65854503 43.92846602 10.24600621 49.84456479 16 56 C14.68 57.98 13.36 59.96 12 62 C16.62 62 21.24 62 26 62 C26 62.66 26 63.32 26 64 C17.42 64 8.84 64 0 64 C0 42.88 0 21.76 0 0 Z " fill="#E2A23D" transform="translate(0,0)"/>
<path d="M0 0 C8.91 0 17.82 0 27 0 C27.33 7.92 27.66 15.84 28 24 C28.66 22.02 29.32 20.04 30 18 C33.07800627 12.27045821 36.27472568 8.13526927 42 5 C42.66 5.99 43.32 6.98 44 8 C43.54109375 8.4125 43.0821875 8.825 42.609375 9.25 C37.10414202 14.43139574 33.6769782 19.5851258 32 27 C30.02 27 28.04 27 26 27 C26 22.05 26 17.1 26 12 C25.02160156 12.65226562 24.04320313 13.30453125 23.03515625 13.9765625 C22.40367676 14.39719971 21.77219727 14.81783691 21.12158203 15.2512207 C19.74495328 16.16968051 18.3696324 17.09010354 16.99560547 18.01245117 C14.03378808 19.9976333 11.07243923 21.95542935 8.03515625 23.82421875 C7.23980469 24.31535156 6.44445313 24.80648437 5.625 25.3125 C4.93664063 25.72113281 4.24828125 26.12976563 3.5390625 26.55078125 C1.45820985 28.5101628 1.32587105 30.22078551 1 33 C0.67 33 0.34 33 0 33 C0 22.11 0 11.22 0 0 Z " fill="#B87642" transform="translate(36,64)"/>
<path d="M0 0 C3.661446 3.46907581 6.51835758 6.95155905 9.3125 11.1875 C10.00988281 12.23292969 10.70726563 13.27835938 11.42578125 14.35546875 C13 17 13 17 13 19 C13.94875 18.95875 14.8975 18.9175 15.875 18.875 C19 19 19 19 21 21 C21.25 23.5 21.25 23.5 21 26 C19 28 19 28 15.56005859 28.22705078 C14.08948021 28.22673369 12.61887858 28.21540987 11.1484375 28.1953125 C10.37440582 28.1924826 9.60037415 28.18965271 8.80288696 28.18673706 C6.32676843 28.17552754 3.8510095 28.15042203 1.375 28.125 C-0.30207812 28.11497118 -1.97916189 28.10584516 -3.65625 28.09765625 C-7.77097223 28.07558574 -11.88542511 28.04105102 -16 28 C-16 25.03 -16 22.06 -16 19 C-14.35 19 -12.7 19 -11 19 C-10.9175 18.154375 -10.835 17.30875 -10.75 16.4375 C-9.17733048 9.22943138 -5.23991982 4.88265256 0 0 Z " fill="#E29F36" transform="translate(79,72)"/>
<path d="M0 0 C1.40027356 26.9576474 1.40027356 26.9576474 0 39 C-3.71710317 37.64356298 -6.8054197 35.95339775 -10.08203125 33.7421875 C-11.01337891 33.11699219 -11.94472656 32.49179688 -12.90429688 31.84765625 C-13.86400391 31.19667969 -14.82371094 30.54570313 -15.8125 29.875 C-16.79154297 29.21628906 -17.77058594 28.55757812 -18.77929688 27.87890625 C-21.18903347 26.25674211 -23.59578494 24.63033154 -26 23 C-25.82511475 18.6331683 -25.67803012 16.62996464 -22.41015625 13.59375 C-21.30542969 12.9028125 -20.20070313 12.211875 -19.0625 11.5 C-17.87980707 10.74151074 -16.69752007 9.98238817 -15.515625 9.22265625 C-14.92458984 8.85285645 -14.33355469 8.48305664 -13.72460938 8.10205078 C-11.18340667 6.47818484 -8.7550266 4.70511793 -6.3125 2.9375 C-2.24263039 0 -2.24263039 0 0 0 Z " fill="#D6871C" transform="translate(62,76)"/>
<path d="M0 0 C2 2 2 2 2.22705078 4.98095703 C2.21657715 6.22731934 2.20610352 7.47368164 2.1953125 8.7578125 C2.1924826 9.42086395 2.18965271 10.08391541 2.18673706 10.76705933 C2.17553435 12.88655583 2.15043051 15.00563104 2.125 17.125 C2.11497028 18.56119182 2.10584441 19.99739025 2.09765625 21.43359375 C2.075595 24.95586628 2.04106494 28.47789203 2 32 C-0.0753434 32.04238086 -2.15093787 32.0725814 -4.2265625 32.09765625 C-5.960271 32.12484741 -5.960271 32.12484741 -7.72900391 32.15258789 C-15.20192952 31.80398523 -19.69936911 27.74930569 -24.75 22.5859375 C-26 21 -26 21 -26 19 C-24.47119141 17.87426758 -24.47119141 17.87426758 -22.3515625 16.64453125 C-21.59359375 16.18626953 -20.835625 15.72800781 -20.0546875 15.25585938 C-18.44920884 14.30212245 -16.83726849 13.35917075 -15.21875 12.42773438 C-10.09486641 9.37721712 -10.09486641 9.37721712 -7.5859375 4.19921875 C-7.39257812 3.14347656 -7.19921875 2.08773438 -7 1 C-4.48718205 -0.25640898 -2.78302919 -0.20872719 0 0 Z " fill="#9D452F" transform="translate(98,27)"/>
<path d="M0 0 C5.85102645 2.53330156 10.23307206 7.81012489 12.875 13.5625 C16.28568978 23.98405212 15.84722568 33.22000937 11 43 C6.36010865 49.77607895 -0.07701647 55.50205936 -8 58 C-10.83674511 58.21541358 -13.54183445 58.32488272 -16.375 58.3125 C-17.46941406 58.33666992 -17.46941406 58.33666992 -18.5859375 58.36132812 C-27.13442827 58.36896071 -33.80240882 54.79735535 -40 49 C-44.53165976 43.70869785 -47.84597807 39.08500861 -48 32 C-46.68 32 -45.36 32 -44 32 C-43.79246094 32.556875 -43.58492188 33.11375 -43.37109375 33.6875 C-40.28706895 41.32659072 -35.73450192 48.44630993 -28 52 C-21.10541051 54.22919753 -10.96173119 54.46765604 -4.375 51.25 C-2.66471735 50.27667028 -2.66471735 50.27667028 -1 49 C-0.17371094 48.40574219 0.65257812 47.81148437 1.50390625 47.19921875 C6.64467225 42.66987406 9.43605753 36.37968338 10.5546875 29.67578125 C10.86711964 21.91092374 8.98641874 16.55947083 5 10 C4.505 8.91138672 4.505 8.91138672 4 7.80078125 C2.56747801 5.22112251 0.73030308 4.86220097 -2 4 C-1.34 2.68 -0.68 1.36 0 0 Z " fill="#69954C" transform="translate(112,69)"/>
<path d="M0 0 C1.2065625 0.0309375 1.2065625 0.0309375 2.4375 0.0625 C1.1175 0.7225 -0.2025 1.3825 -1.5625 2.0625 C-1.8925 10.6425 -2.2225 19.2225 -2.5625 28.0625 C-23.3525 28.0625 -44.1425 28.0625 -65.5625 28.0625 C-65.5625 19.8125 -65.5625 11.5625 -65.5625 3.0625 C-64.02007138 5.37614293 -62.8593427 7.44854485 -61.6875 9.9375 C-57.53579282 18.18074468 -51.37822876 23.12392375 -42.5625 26.0625 C-32.69469857 26.79968901 -23.8798487 27.19195175 -15.5625 21.0625 C-12.72790517 18.56291345 -12.72790517 18.56291345 -10.5625 16.0625 C-9.25074014 15.03436389 -7.9255107 14.02165568 -6.5625 13.0625 C-5.5725 13.7225 -4.5825 14.3825 -3.5625 15.0625 C-3.57410156 14.06347656 -3.58570313 13.06445312 -3.59765625 12.03515625 C-3.60667969 10.74480469 -3.61570313 9.45445313 -3.625 8.125 C-3.63660156 6.83722656 -3.64820313 5.54945312 -3.66015625 4.22265625 C-3.53232863 0.08615436 -3.53232863 0.08615436 0 0 Z " fill="#BB7B46" transform="translate(65.5625,99.9375)"/>
<path d="M0 0 C3.95767024 0.63741324 6.7107482 2.5963666 10 4.8125 C11.546875 5.84310547 11.546875 5.84310547 13.125 6.89453125 C15.68639021 8.77033196 17.83702748 10.68624334 20 13 C19.16655075 17.14899552 17.99497904 19.33136725 14.62890625 21.7734375 C13.28436978 22.65748013 11.92841206 23.52435674 10.5625 24.375 C9.88123047 24.82488281 9.19996094 25.27476563 8.49804688 25.73828125 C3.43693009 29 3.43693009 29 0 29 C-3.00240828 23.98010045 -3.46475201 20.17432167 -3.375 14.5 C-3.38660156 13.76652344 -3.39820312 13.03304688 -3.41015625 12.27734375 C-3.3842799 7.45571637 -2.53055751 4.23098504 0 0 Z " fill="#597A2D" transform="translate(71,17)"/>
<path d="M0 0 C3.3 0 6.6 0 10 0 C10.04936883 4.80548597 10.08570443 9.61082494 10.10986328 14.41650391 C10.11993254 16.05194672 10.13358881 17.68737149 10.15087891 19.32275391 C10.17508705 21.6709437 10.18647357 24.01889588 10.1953125 26.3671875 C10.20563507 27.10057343 10.21595764 27.83395935 10.22659302 28.58956909 C10.22699368 30.39462697 10.12212755 32.1990783 10 34 C8 36 8 36 5 36.3125 C4.01 36.209375 3.02 36.10625 2 36 C-0.42869909 32.35695136 -0.25675675 29.69277661 -0.1953125 25.48828125 C-0.1924826 24.76005661 -0.18965271 24.03183197 -0.18673706 23.28153992 C-0.17555257 20.95835863 -0.15045166 18.63556453 -0.125 16.3125 C-0.11496794 14.7363337 -0.10584248 13.16016135 -0.09765625 11.58398438 C-0.07561896 7.72250733 -0.04110141 3.86131929 0 0 Z " fill="#4E4E6B" transform="translate(26,64)"/>
<path d="M0 0 C1.2463623 0.01047363 2.49272461 0.02094727 3.77685547 0.03173828 C4.77143265 0.03598312 4.77143265 0.03598312 5.78610229 0.04031372 C7.9055988 0.05151643 10.02467401 0.07662027 12.14404297 0.10205078 C13.58023479 0.11208051 15.01643322 0.12120637 16.45263672 0.12939453 C19.97490925 0.15145578 23.496935 0.18598585 27.01904297 0.22705078 C27.01904297 3.52705078 27.01904297 6.82705078 27.01904297 10.22705078 C22.93594877 10.34320007 18.8532792 10.41428535 14.76904297 10.47705078 C13.61017578 10.51056641 12.45130859 10.54408203 11.25732422 10.57861328 C10.14228516 10.59150391 9.02724609 10.60439453 7.87841797 10.61767578 C6.85200195 10.63862305 5.82558594 10.65957031 4.76806641 10.68115234 C1.3458132 10.11584231 0.1914626 8.85395151 -1.98095703 6.22705078 C-2.64095703 7.54705078 -3.30095703 8.86705078 -3.98095703 10.22705078 C-5.34214164 7.98509965 -6.04233731 6.74878316 -5.73095703 4.10205078 C-4.43533049 0.86298444 -3.47445556 0.26463912 0 0 Z " fill="#67944B" transform="translate(31.98095703125,26.77294921875)"/>
<path d="M0 0 C3.661446 3.46907581 6.51835758 6.95155905 9.3125 11.1875 C10.00988281 12.23292969 10.70726563 13.27835938 11.42578125 14.35546875 C13 17 13 17 13 19 C5.08 19 -2.84 19 -11 19 C-9.54325691 10.25954146 -6.27782614 5.84979254 0 0 Z " fill="#DAB688" transform="translate(79,72)"/>
<path d="M0 0 C4.35039522 0.87007904 6.47182526 1.60607183 10.125 3.8125 C10.97320312 4.31394531 11.82140625 4.81539063 12.6953125 5.33203125 C15.01875144 7.01357096 16.42275619 8.62382549 18 11 C16.49929513 15.03147936 14.18014605 16.44384289 10.5625 18.625 C9.59441406 19.21539062 8.62632813 19.80578125 7.62890625 20.4140625 C6.76136719 20.93742187 5.89382812 21.46078125 5 22 C1.77595022 23.66954819 1.77595022 23.66954819 1.3125 26.625 C1.209375 27.40875 1.10625 28.1925 1 29 C0.67 29 0.34 29 0 29 C0 19.43 0 9.86 0 0 Z " fill="#BB7A46" transform="translate(36,68)"/>
<path d="M0 0 C0 7.92 0 15.84 0 24 C-6.76759062 22.87206823 -6.76759062 22.87206823 -10.125 20.1875 C-10.79789062 19.64996094 -11.47078125 19.11242187 -12.1640625 18.55859375 C-14.23988641 16.79635175 -16.22543564 15.07032508 -18 13 C-18 12.34 -18 11.68 -18 11 C-16.45532227 9.76318359 -16.45532227 9.76318359 -14.31640625 8.3984375 C-13.55392578 7.90859375 -12.79144531 7.41875 -12.00585938 6.9140625 C-11.19955078 6.40617187 -10.39324219 5.89828125 -9.5625 5.375 C-8.35883789 4.6015625 -8.35883789 4.6015625 -7.13085938 3.8125 C-1.15491691 0 -1.15491691 0 0 0 Z " fill="#BD7D47" transform="translate(90,35)"/>
<path d="M0 0 C7.92 0 15.84 0 24 0 C21.72798083 7.95206711 21.72798083 7.95206711 19.1875 11.25 C18.46626953 12.21679688 18.46626953 12.21679688 17.73046875 13.203125 C15.70359683 15.30777755 13.55055981 16.59697559 11 18 C9.34990683 15.56528902 7.70481602 13.12744835 6.0625 10.6875 C5.35963867 9.65206055 5.35963867 9.65206055 4.64257812 8.59570312 C4.19462891 7.92861328 3.74667969 7.26152344 3.28515625 6.57421875 C2.87144775 5.96151123 2.45773926 5.34880371 2.03149414 4.7175293 C1 3 1 3 0 0 Z " fill="#D9B68A" transform="translate(35,37)"/>
<path d="M0 0 C0.33 0 0.66 0 1 0 C1 8.25 1 16.5 1 25 C-2.96 25.33 -6.92 25.66 -11 26 C-11.33 26.66 -11.66 27.32 -12 28 C-18.93 27.505 -18.93 27.505 -26 27 C-26 26.01 -26 25.02 -26 24 C-25.29875 23.79246094 -24.5975 23.58492187 -23.875 23.37109375 C-13.51007987 20.00531126 -7.01375484 14.70273204 -2 5 C-1.28050817 3.35544725 -0.58353604 1.6975594 0 0 Z " fill="#B87D4B" transform="translate(126,39)"/>
<path d="M0 0 C0.33 0 0.66 0 1 0 C1 3.63 1 7.26 1 11 C2.32 10.34 3.64 9.68 5 9 C5.3403125 9.44730469 5.680625 9.89460938 6.03125 10.35546875 C11.51307481 17.19317044 17.46385916 21.04380106 26 23 C26 23.99 26 24.98 26 26 C21.38 26.33 16.76 26.66 12 27 C12 26.34 12 25.68 12 25 C8.04 24.67 4.08 24.34 0 24 C0 16.08 0 8.16 0 0 Z " fill="#B97B48" transform="translate(64,40)"/>
<path d="M0 0 C0.33 0 0.66 0 1 0 C1 7.92 1 15.84 1 24 C-7.91 24 -16.82 24 -26 24 C-26 23.34 -26 22.68 -26 22 C-21.38 21.67 -16.76 21.34 -12 21 C-12 19.68 -12 18.36 -12 17 C-10.625 15.25 -10.625 15.25 -9 14 C-8.34 14 -7.68 14 -7 14 C-6.58621094 13.17242187 -6.58621094 13.17242187 -6.1640625 12.328125 C-4.109375 8.21875 -2.0546875 4.109375 0 0 Z " fill="#DFBC8E" transform="translate(62,40)"/>
<path d="M0 0 C8.25 0 16.5 0 25 0 C25 7.92 25 15.84 25 24 C23.04029003 22.04029003 22.3591079 20.78853475 21.25 18.3125 C17.22431262 10.17264859 12.10017196 5.9322653 4 2 C2.68 1.34 1.36 0.68 0 0 Z " fill="#BD7D4B" transform="translate(102,0)"/>
<path d="M0 0 C8.25 0 16.5 0 25 0 C25 8.58 25 17.16 25 26 C24.67 26 24.34 26 24 26 C23.88785156 25.39414062 23.77570312 24.78828125 23.66015625 24.1640625 C21.68082669 15.75514606 17.07770111 9.2960516 9.7734375 4.5546875 C7.89538481 3.6051103 5.94935753 2.792959 4 2 C2.68 1.34 1.36 0.68 0 0 Z " fill="#DFBE8F" transform="translate(38,0)"/>
<path d="M0 0 C0.33 0 0.66 0 1 0 C1.20625 0.804375 1.4125 1.60875 1.625 2.4375 C4.28464705 9.32840373 8.56475683 15.04433711 14 20 C13.34 20.99 12.68 21.98 12 23 C16.62 23 21.24 23 26 23 C26 23.66 26 24.32 26 25 C17.42 25 8.84 25 0 25 C0 16.75 0 8.5 0 0 Z " fill="#E1BD8F" transform="translate(0,39)"/>
<path d="M0 0 C0.33 0 0.66 0 1 0 C1 7.92 1 15.84 1 24 C-6.26 24 -13.52 24 -21 24 C-20 22 -20 22 -16.375 20.3125 C-7.34473078 15.88621419 -3.5880471 9.14373294 0 0 Z " fill="#DFBF91" transform="translate(126,103)"/>
<path d="M0 0 C7.92 0 15.84 0 24 0 C21.90684915 2.09315085 20.86596501 2.49582255 18.125 3.375 C14.55373194 4.63658926 12.55244184 6.15304564 10 9 C9.34 9 8.68 9 8 9 C7.72414063 9.55171875 7.44828125 10.1034375 7.1640625 10.671875 C5.109375 14.78125 3.0546875 18.890625 1 23 C0.67 23 0.34 23 0 23 C0 15.41 0 7.82 0 0 Z " fill="#DEBB8E" transform="translate(0,0)"/>
<path d="M0 0 C7.92 0 15.84 0 24 0 C21.67134937 1.55243375 19.63740574 2.66383201 17.125 3.8125 C13.3584018 5.6751035 10.79473217 7.81711058 8 11 C7.29875 11.763125 6.5975 12.52625 5.875 13.3125 C3.48452255 16.73885101 2.33998138 20.04705494 1 24 C0.67 24 0.34 24 0 24 C0 16.08 0 8.16 0 0 Z " fill="#B97642" transform="translate(0,64)"/>
<path d="M0 0 C8.25 0 16.5 0 25 0 C25 7.92 25 15.84 25 24 C22.8317943 21.8317943 22.06045039 20.09376828 20.8125 17.3125 C18.34227273 12.21673176 15.24569914 8.69510415 11 5 C11.66 3.68 12.32 2.36 13 1 C8.71 1 4.42 1 0 1 C0 0.67 0 0.34 0 0 Z " fill="#E2C193" transform="translate(102,64)"/>
<path d="M0 0 C2.39988401 2.99985501 4.55365951 5.80402252 6.6875 8.9375 C10.05483608 13.48168568 14.19938077 16.1287725 19 19 C19.99 19.66 20.98 20.32 22 21 C14.74 21 7.48 21 0 21 C0 14.07 0 7.14 0 0 Z " fill="#DEBD90" transform="translate(64,106)"/>
<path d="M0 0 C7.92 0 15.84 0 24 0 C22.02 0.99 22.02 0.99 20 2 C15.00291196 4.83135207 10.97239043 7.80061583 7 12 C6.01 12.66 5.02 13.32 4 14 C3.34 13.67 2.68 13.34 2 13 C1.67 16.3 1.34 19.6 1 23 C0.67 23 0.34 23 0 23 C0 15.41 0 7.82 0 0 Z " fill="#B97A45" transform="translate(64,0)"/>
<path d="M0 0 C7.92 0 15.84 0 24 0 C24 0.33 24 0.66 24 1 C20.04 1 16.08 1 12 1 C12.66 2.32 13.32 3.64 14 5 C12.96875 5.78375 11.9375 6.5675 10.875 7.375 C6.93204341 10.708882 4.63949821 14.53588293 2.1640625 19.0234375 C1.77992187 19.67570312 1.39578125 20.32796875 1 21 C0.67 21 0.34 21 0 21 C0 14.07 0 7.14 0 0 Z " fill="#DDBE91" transform="translate(64,64)"/>
<path d="M0 0 C9.45971579 1.27005444 15.75278353 5.97188148 22 13 C22 13.66 22 14.32 22 15 C20.3125 15.8125 20.3125 15.8125 18 16 C16.28641357 14.38161281 14.6292274 12.70328319 13 11 C8.93298342 8.08199826 4.74926322 5.63255923 0 4 C0 2.68 0 1.36 0 0 Z " fill="#9B442E" transform="translate(36,64)"/>
<path d="M0 0 C0.99 0.99 1.98 1.98 3 3 C2.54109375 3.4125 2.0821875 3.825 1.609375 4.25 C-3.69121327 9.23878896 -6.70688321 14.12064964 -9 21 C-10.32 21 -11.64 21 -13 21 C-12.84588309 13.91062191 -9.4304999 9.36323672 -5 4 C-2.0625 1.375 -2.0625 1.375 0 0 Z " fill="#67924A" transform="translate(77,69)"/>
<path d="M0 0 C0.33 0 0.66 0 1 0 C1.268125 0.86625 1.53625 1.7325 1.8125 2.625 C2.92778724 6.04651655 2.92778724 6.04651655 4.6875 9.25 C5.120625 10.1575 5.55375 11.065 6 12 C5.67 12.66 5.34 13.32 5 14 C3.35 14 1.7 14 0 14 C0 9.38 0 4.76 0 0 Z " fill="#DBB687" transform="translate(0,39)"/>
<path d="M0 0 C8.25 0 16.5 0 25 0 C21.6436604 1.6781698 18.59635933 2.98363758 15 4 C14.34 3.67 13.68 3.34 13 3 C13 2.34 13 1.68 13 1 C8.71 1 4.42 1 0 1 C0 0.67 0 0.34 0 0 Z " fill="#E8CA9D" transform="translate(102,64)"/>
<path d="M0 0 C2.31 0 4.62 0 7 0 C6.01 0.495 6.01 0.495 5 1 C5 1.66 5 2.32 5 3 C4.01 3.33 3.02 3.66 2 4 C1.34 4.66 0.68 5.32 0 6 C0 4.02 0 2.04 0 0 Z " fill="#E4C398" transform="translate(64,64)"/>
<path d="M0 0 C0.99 0 1.98 0 3 0 C3.33 1.32 3.66 2.64 4 4 C2.02 4.99 2.02 4.99 0 6 C0 4.02 0 2.04 0 0 Z " fill="#E3C195" transform="translate(0,6)"/>
<path d="M0 0 C0.99 0 1.98 0 3 0 C2.34 2.97 1.68 5.94 1 9 C0.67 9 0.34 9 0 9 C0 6.03 0 3.06 0 0 Z " fill="#BF7C46" transform="translate(0,79)"/>
</svg>
